<?xml version="1.0" encoding="UTF-8"?>
<!DOCTYPE svg PUBLIC "-//W3C//DTD SVG 1.1//EN" "http://www.w3.org/Graphics/SVG/1.1/DTD/svg11.dtd">
<svg xmlns="http://www.w3.org/2000/svg" version="1.1" width="1563px" height="1563px" style="shape-rendering:geometricPrecision; text-rendering:geometricPrecision; image-rendering:optimizeQuality; fill-rule:evenodd; clip-rule:evenodd" xmlns:xlink="http://www.w3.org/1999/xlink">
<g><path style="opacity:1" fill="#fefefe" d="M -0.5,-0.5 C 520.5,-0.5 1041.5,-0.5 1562.5,-0.5C 1562.5,520.5 1562.5,1041.5 1562.5,1562.5C 1041.5,1562.5 520.5,1562.5 -0.5,1562.5C -0.5,1041.5 -0.5,520.5 -0.5,-0.5 Z"/></g>
<g><path style="opacity:1" fill="#373435" d="M 627.5,618.5 C 628.167,620.833 628.833,623.167 629.5,625.5C 632.786,653.287 648.12,670.121 675.5,676C 709.797,678.062 742.464,671.728 773.5,657C 804,642.813 830.833,623.646 854,599.5C 871.556,576.721 871.89,553.721 855,530.5C 843.619,518.109 830.786,507.609 816.5,499C 845.174,505.114 871.84,516.114 896.5,532C 929.044,555.636 939.211,586.803 927,625.5C 921.859,642.121 913.859,657.121 903,670.5C 894.864,679.637 886.364,688.47 877.5,697C 861.642,706.431 845.309,715.097 828.5,723C 803.739,733.587 778.739,743.587 753.5,753C 738.38,759.727 723.38,766.727 708.5,774C 660.69,807.47 640.523,853.304 648,911.5C 635.34,893.497 627.674,873.497 625,851.5C 621.039,805.538 635.873,766.872 669.5,735.5C 611.476,727.896 562.643,745.562 523,788.5C 532.438,762.533 548.938,742.033 572.5,727C 605.544,709.226 640.877,701.226 678.5,703C 698.257,701.301 716.924,695.968 734.5,687C 715.888,688.421 697.221,688.755 678.5,688C 650.817,684.741 633.65,669.574 627,642.5C 626.23,634.452 626.397,626.452 627.5,618.5 Z"/></g>
<g><path style="opacity:1" fill="#e276bd" d="M 678.5,502.5 C 696.291,504.938 712.957,511.105 728.5,521C 746.326,533.814 753.159,550.981 749,572.5C 745.364,560.545 738.364,551.212 728,544.5C 735.434,555.04 741.101,566.707 745,579.5C 745.798,581.259 745.631,582.926 744.5,584.5C 726.284,588.134 713.784,581.134 707,563.5C 700.436,545.037 692.769,527.037 684,509.5C 682.629,506.734 680.796,504.401 678.5,502.5 Z"/></g>
<g><path style="opacity:1" fill="#e277bd" d="M 807.5,529.5 C 813.176,529.334 818.843,529.501 824.5,530C 820.277,535.224 816.444,540.724 813,546.5C 807.139,559.083 801.473,571.75 796,584.5C 792.114,591.386 786.614,596.553 779.5,600C 774.743,600.81 770.076,600.476 765.5,599C 765.021,583.623 771.021,571.29 783.5,562C 773.218,565.089 765.051,571.256 759,580.5C 762.43,559.723 773.597,544.557 792.5,535C 797.571,533.035 802.571,531.202 807.5,529.5 Z"/></g>
<g><path style="opacity:1" fill="#e275bd" d="M 937.5,573.5 C 942.942,580.714 947.109,588.714 950,597.5C 957.056,617.223 961.056,637.556 962,658.5C 962.649,679.882 962.316,701.215 961,722.5C 964.6,764.425 984.767,795.592 1021.5,816C 1028.17,819.333 1034.83,822.667 1041.5,826C 1016.72,833.674 994.217,829.508 974,813.5C 974.575,823.225 977.575,832.225 983,840.5C 993.572,853.083 1002.57,866.75 1010,881.5C 1020.18,906.967 1019.85,932.3 1009,957.5C 1005.18,965.819 1000.84,973.819 996,981.5C 997.644,973.578 999.311,965.578 1001,957.5C 1003.66,936.143 999.66,916.143 989,897.5C 978.911,879.756 965.745,864.922 949.5,853C 960.517,883.215 962.35,914.048 955,945.5C 951.726,979.04 962.892,1006.54 988.5,1028C 948.951,1021.79 922.784,999.628 910,961.5C 908.842,957.203 907.842,952.869 907,948.5C 906.404,937.446 906.404,926.446 907,915.5C 883.688,949.094 875.688,986.094 883,1026.5C 886.039,1039.28 890.039,1051.62 895,1063.5C 860.471,1026.23 849.471,982.895 862,933.5C 864.406,926.724 866.739,920.058 869,913.5C 845.919,927.33 835.919,947.663 839,974.5C 844.763,992.553 849.43,1010.89 853,1029.5C 854.319,1038.8 853.319,1047.8 850,1056.5C 843,1040.18 834.333,1024.85 824,1010.5C 803.049,982.548 781.716,954.881 760,927.5C 748.747,906.489 746.413,884.489 753,861.5C 755.267,852.781 760.1,845.948 767.5,841C 773.5,839 779.5,839 785.5,841C 799.224,850.866 813.89,859.199 829.5,866C 835.345,868.248 841.012,867.915 846.5,865C 848.041,863.421 849.208,861.587 850,859.5C 851.849,851.613 852.849,843.613 853,835.5C 853.74,831.926 855.907,829.926 859.5,829.5C 869.222,831.64 874.888,827.807 876.5,818C 876.592,815.186 875.592,812.853 873.5,811C 877.769,811.212 881.269,809.712 884,806.5C 884.667,799.833 885.333,793.167 886,786.5C 887.214,784.951 888.714,783.785 890.5,783C 898.613,782.849 906.613,781.849 914.5,780C 921.974,776.88 924.474,771.38 922,763.5C 910.684,741.979 908.684,719.645 916,696.5C 921.652,685.865 927.319,675.198 933,664.5C 945.096,634.662 946.596,604.329 937.5,573.5 Z"/></g>
<g><path style="opacity:1" fill="#e277be" d="M 713.5,593.5 C 725.88,592.229 737.547,594.395 748.5,600C 734.297,601.216 720.963,605.216 708.5,612C 724.685,606.91 741.351,605.244 758.5,607C 760.422,620.114 754.756,628.114 741.5,631C 722.885,632.915 704.219,634.249 685.5,635C 676.679,637.169 668.012,639.503 659.5,642C 669.018,624.147 682.352,609.814 699.5,599C 704.159,596.842 708.825,595.009 713.5,593.5 Z"/></g>
<g><path style="opacity:1" fill="#949293" d="M 629.5,625.5 C 628.833,623.167 628.167,620.833 627.5,618.5C 627.892,616.821 628.392,615.154 629,613.5C 629.499,617.486 629.666,621.486 629.5,625.5 Z"/></g>
</svg>
